<svg width="35" height="35" viewBox="0 0 35 35" fill="none" xmlns="http://www.w3.org/2000/svg">
<g clip-path="url(#clip0)">
<path d="M29.6015 33.9333H11.3566C8.64239 33.9333 6.45815 31.717 6.45815 29.0188V24.4255C6.45815 23.6064 7.11663 22.9479 7.91966 22.9479C8.72269 22.9479 9.38118 23.6064 9.38118 24.4255V29.0188C9.38118 30.1109 10.2806 31.0103 11.3727 31.0103H29.5854C30.6775 31.0103 31.5769 30.1109 31.5769 29.0188V6.42153C31.5769 5.32941 30.6775 4.43001 29.5854 4.43001H11.3566C10.2645 4.43001 9.36512 5.32941 9.36512 6.42153V11.0309C9.36512 11.85 8.70663 12.5085 7.9036 12.5085C7.10057 12.5085 6.44209 11.8661 6.44209 11.047V6.42153C6.44209 3.72335 8.64239 1.50698 11.3566 1.50698H29.5854C32.2997 1.49092 34.5 3.72335 34.5 6.42153V29.0027C34.5 31.7009 32.2997 33.9333 29.6015 33.9333Z" fill="#B31B2C"/>
<path fill-rule="evenodd" clip-rule="evenodd" d="M16.8332 25.1643C17.1223 25.4533 17.5078 25.5979 17.8772 25.5979C18.2466 25.5979 18.616 25.4533 18.9211 25.1964L25.3293 18.7561C25.9075 18.1779 25.9075 17.2464 25.3293 16.6682L18.9211 10.2279C18.3429 9.64971 17.4114 9.64971 16.8332 10.2279C16.255 10.79 16.255 11.7376 16.8332 12.3158L20.7403 16.2346H2.23425C1.43122 16.2346 0.772736 16.8931 0.772736 17.7121C0.772736 18.5312 1.43122 19.1897 2.23425 19.1897H20.7083L16.8332 23.0764C16.255 23.6385 16.255 24.5861 16.8332 25.1643Z" fill="#B31B2C"/>
</g>
<defs>
<clipPath id="clip0">
<rect width="33.7273" height="33.7273" fill="white" transform="translate(0.772751 0.84848)"/>
</clipPath>
</defs>
</svg>
