<svg width="283" height="23" viewBox="0 0 283 23" fill="none" xmlns="http://www.w3.org/2000/svg">    <path d="M230 0.560913L221.024 22.9999H224.187L226.634 16.8293H236.171L238.695 22.9999H241.78L232.805 0.560913H230ZM276.298 13.5812C275.817 12.8693 275.378 12.328 274.979 11.9614C274.578 11.5948 274.108 11.3272 273.563 11.1588C274.913 10.6701 275.913 9.55924 276.666 8.00046L277.957 5.25432C277.959 5.25078 277.959 5.24697 277.961 5.24455L280.156 0.560913H277.318L275.361 4.69407L274.371 6.78567C273.825 7.96097 273.032 8.86896 272.257 9.36711C271.494 9.8569 270.663 10.0975 269.655 10.0975H268.146L268.152 0.560913H265.258L265.341 22.9999H268.152L268.146 12.9025H270.065C270.546 12.9025 272.284 12.9551 273.122 13.9743C273.393 14.3023 273.698 14.7148 274.034 15.2165L279.276 22.9999H282.732L276.298 13.5812ZM258.61 10.0975H246.829V0.560913H244.024V22.9999H246.829V12.9025H258.61V22.9999H261.415V0.560913H258.61V10.0975ZM196.384 0.560913H191.256L188.488 8.97566H187.346L184.561 0.560913H179.512L183.439 11.7805L179.512 22.9999H184.561L187.366 14.0243H188.488L191.293 22.9999H196.341L192.415 11.7805L196.384 0.560913ZM163.244 0.560913L161 22.9999H166.039L166.61 17.3901H171.659L172.29 22.9999H177.268L175.024 0.560913H163.244ZM0 22.9999H5.04878V16.2683H15.1463V0.560913H0V22.9999ZM126.219 5.60981H131.268V22.9999H136.317V5.60981H141.366L141.315 0.560913H126.219V5.60981ZM108.829 22.9999H123.976V15.7071H118.927V17.9513H113.878V5.04889H118.927V7.29273H123.976V0.560913H108.829V22.9999ZM37.0244 22.9999H52.1707V15.7071H47.1219V17.9513H42.0732V5.04889H47.1219V7.29273H52.1707V0.560913H37.0244V22.9999ZM18.5122 22.9999H33.6585V0.560913H18.5122V22.9999ZM90.3171 22.9999H105.463V15.7071H100.415V17.9513H95.3658V5.04889H100.415V7.29273H105.463V0.560913H90.3171V22.9999ZM143.61 22.9999H148.659V16.2683H158.756V0.560913H143.61V22.9999ZM71.8049 22.9999H86.9512V0.560913H71.8049V22.9999ZM55.5366 22.9999H60.5854V5.60981H68.439V0.560913H55.5366V22.9999ZM213.732 10.0975V12.9025C215.882 12.9025 217.227 14.5487 217.227 16.6022C217.227 17.7513 216.856 18.5982 216.127 19.2242C215.214 20.0053 214.002 20.1927 212.049 20.1951C210.13 20.1976 209.807 20.1951 209.805 20.1951H204.195V22.9999H212.049C213.543 22.9999 215.227 22.7205 216.466 22.1914C217.47 21.7624 218.295 21.1365 218.927 20.3649C220.181 18.8323 220.278 17.2232 220.278 16.7433C220.278 11.3131 215.882 10.0975 213.732 10.0975C211.581 10.0975 213.732 10.0975 213.732 10.0975ZM227.756 14.0243L231.322 3.92688L235.049 14.0243H227.756ZM23.561 5.60981H28.6098V17.9513H23.561V5.60981ZM76.8537 5.60981H81.9024V17.9513H76.8537V5.60981ZM218.219 0.560913H204.195V3.36579H218.219V0.560913ZM5.04878 5.60981H10.0976V11.2195H5.04878V5.60981ZM148.659 5.60981H153.707V11.2195H148.659V5.60981ZM167.171 12.3415L167.732 5.60981H170.537L171.098 12.3415H167.171Z" fill="#B31B2C"/>    <path d="M212.049 10.0975H207V5.04889H204.195V10.0975H199.146V12.9025H204.195V17.9513H207V12.9025H212.049V10.0975Z" fill="#CCA266"/></svg>