<svg width="31" height="32" viewBox="0 0 31 32" fill="none" xmlns="http://www.w3.org/2000/svg">
<path d="M20.8 13.6V17.6003C23.8664 17.6003 25.7848 19.9478 25.7848 22.8763C25.7848 24.515 25.2553 25.7229 24.2161 26.6155C22.9144 27.7294 21.1848 27.9967 18.4 28.0002C15.664 28.0037 15.2032 28.0002 15.2 28.0002H7.2V32H18.4C20.5312 32 22.932 31.6016 24.7 30.847C26.1313 30.2353 27.308 29.3427 28.2088 28.2422C29.9976 26.0566 30.136 23.7619 30.136 23.0775C30.136 15.3336 23.8664 13.6 20.8 13.6ZM27.2 0H7.2V4.00001H27.2V0Z" fill="#B31B2C"/>
<path d="M18.4 13.6H11.2V6.40027H7.20001V13.6H0V17.6003H7.20001V24.8002H11.2V17.6003H18.4V13.6Z" fill="#CCA266"/>
</svg>
