<svg width="68" height="58" viewBox="0 0 68 58" fill="none" xmlns="http://www.w3.org/2000/svg">
<g clip-path="url(#clip0)">
<path d="M66 9.6C64.9 9.6 64 10.5 64 11.6V51.6C64 52.7 63.1 53.6 62 53.6H6C4.9 53.6 4 52.7 4 51.6V11.6C4 10.5 4.9 9.6 6 9.6H11.1V12C11.1 13.1 12 14 13.1 14C14.2 14 15.1 13.1 15.1 12V9.6H51.3V12C51.3 13.1 52.2 14 53.3 14C54.4 14 55.3 13.1 55.3 12V9.6H62C63.1 9.6 64 8.7 64 7.6C64 6.5 63.1 5.6 62 5.6H55.3V2C55.3 0.9 54.4 0 53.3 0C52.2 0 51.3 0.9 51.3 2V5.6H15.1V2C15.1 0.9 14.2 0 13.1 0C12 0 11.1 0.9 11.1 2V5.6H6C2.7 5.6 0 8.3 0 11.6V51.6C0 54.9 2.7 57.6 6 57.6H62C65.3 57.6 68 54.9 68 51.6V11.6C68 10.5 67.1 9.6 66 9.6Z" fill="#B31E2D"/>
<path d="M18.9 20.9H15C13.9 20.9 13 21.8 13 22.9V24C13 25.1 13.9 26 15 26H18.9C20 26 20.9 25.1 20.9 24V22.8C20.9 21.8 20 20.9 18.9 20.9Z" fill="#CCA165"/>
<path d="M30.3 20.9H26.4C25.3 20.9 24.4 21.8 24.4 22.9V24C24.4 25.1 25.3 26 26.4 26H30.3C31.4 26 32.3 25.1 32.3 24V22.8C32.3 21.8 31.4 20.9 30.3 20.9Z" fill="#CCA165"/>
<path d="M41.6 20.9H37.7C36.6 20.9 35.7 21.8 35.7 22.9V24C35.7 25.1 36.6 26 37.7 26H41.6C42.7 26 43.6 25.1 43.6 24V22.8C43.6 21.8 42.8 20.9 41.6 20.9Z" fill="#CCA165"/>
<path d="M53 20.9H49.1C48 20.9 47.1 21.8 47.1 22.9V24C47.1 25.1 48 26 49.1 26H53C54.1 26 55 25.1 55 24V22.8C55 21.8 54.1 20.9 53 20.9Z" fill="#CCA165"/>
<path d="M18.9 30.8H15C13.9 30.8 13 31.7 13 32.8V34C13 35.1 13.9 36 15 36H18.9C20 36 20.9 35.1 20.9 34V32.8C20.9 31.7 20 30.8 18.9 30.8Z" fill="#CCA165"/>
<path d="M30.3 30.8H26.4C25.3 30.8 24.4 31.7 24.4 32.8V34C24.4 35.1 25.3 36 26.4 36H30.3C31.4 36 32.3 35.1 32.3 34V32.8C32.3 31.7 31.4 30.8 30.3 30.8Z" fill="#CCA165"/>
<path d="M41.6 30.8H37.7C36.6 30.8 35.7 31.7 35.7 32.8V34C35.7 35.1 36.6 36 37.7 36H41.6C42.7 36 43.6 35.1 43.6 34V32.8C43.6 31.7 42.8 30.8 41.6 30.8Z" fill="#CCA165"/>
<path d="M53 30.8H49.1C48 30.8 47.1 31.7 47.1 32.8V34C47.1 35.1 48 36 49.1 36H53C54.1 36 55 35.1 55 34V32.8C55 31.7 54.1 30.8 53 30.8Z" fill="#CCA165"/>
<path d="M18.9 40.6H15C13.9 40.6 13 41.5 13 42.6V43.8C13 44.9 13.9 45.8 15 45.8H18.9C20 45.8 20.9 44.9 20.9 43.8V42.6C20.9 41.5 20 40.6 18.9 40.6Z" fill="#CCA165"/>
<path d="M30.3 40.6H26.4C25.3 40.6 24.4 41.5 24.4 42.6V43.8C24.4 44.9 25.3 45.8 26.4 45.8H30.3C31.4 45.8 32.3 44.9 32.3 43.8V42.6C32.3 41.5 31.4 40.6 30.3 40.6Z" fill="#CCA165"/>
</g>
<defs>
<clipPath id="clip0">
<rect width="68" height="57.6" fill="white"/>
</clipPath>
</defs>
</svg>
