<svg width="16" height="17" viewBox="0 0 16 17" fill="none" xmlns="http://www.w3.org/2000/svg">
<g clip-path="url(#clip0)">
<path d="M8 0.5C3.58214 0.5 0 4.08214 0 8.5C0 12.9179 3.58214 16.5 8 16.5C12.4179 16.5 16 12.9179 16 8.5C16 4.08214 12.4179 0.5 8 0.5ZM8 15.1429C4.33214 15.1429 1.35714 12.1679 1.35714 8.5C1.35714 4.83214 4.33214 1.85714 8 1.85714C11.6679 1.85714 14.6429 4.83214 14.6429 8.5C14.6429 12.1679 11.6679 15.1429 8 15.1429Z" fill="#B31B2C"/>
<path d="M11.1196 10.7607L8.57321 8.91964V4.5C8.57321 4.42143 8.50893 4.35714 8.43036 4.35714H7.57143C7.49286 4.35714 7.42857 4.42143 7.42857 4.5V9.41786C7.42857 9.46429 7.45 9.50714 7.4875 9.53393L10.4411 11.6875C10.5054 11.7339 10.5946 11.7196 10.6411 11.6571L11.1518 10.9607C11.1982 10.8946 11.1839 10.8054 11.1196 10.7607Z" fill="#B31B2C"/>
</g>
<defs>
<clipPath id="clip0">
<rect width="16" height="16" fill="white" transform="translate(0 0.5)"/>
</clipPath>
</defs>
</svg>
