<svg width="68" height="68" viewBox="0 0 68 68" fill="none" xmlns="http://www.w3.org/2000/svg">
<path d="M34 68C15.3 68 0 52.7 0 34C0 15.3 15.3 0 34 0C52.7 0 68 15.3 68 34C68 39.7 66.6 45.3 63.9 50.2C63.4 51.2 62.2 51.5 61.2 51C60.2 50.5 59.9 49.3 60.4 48.3C62.7 43.9 64 39 64 34C64 17.5 50.5 4 34 4C17.5 4 4 17.5 4 34C4 50.5 17.5 64 34 64C42.9 64 51.2 60.1 56.9 53.3C57.6 52.5 58.9 52.4 59.7 53.1C60.5 53.8 60.6 55.1 59.9 55.9C53.5 63.6 44 68 34 68Z" fill="#B9172F"/>
<path d="M46.8 45.8C46.4 45.8 46 45.7 45.6 45.4L32 35V12C32 10.9 32.9 10 34 10C35.1 10 36 10.9 36 12V33L48.1 42.2C49 42.9 49.1 44.1 48.5 45C48 45.5 47.5 45.8 46.8 45.8Z" fill="#CCA266"/>
</svg>
