<svg width="29" height="34" viewBox="0 0 29 34" fill="none" xmlns="http://www.w3.org/2000/svg">
<path fill-rule="evenodd" clip-rule="evenodd" d="M16.773 12.227C16.9136 12.3677 16.9926 12.5584 16.9926 12.7573C16.9926 12.9563 16.9136 13.147 16.773 13.2877L12.5303 17.5303C12.3897 17.671 12.1989 17.75 12 17.75C11.8011 17.75 11.6103 17.671 11.4697 17.5303L7.22703 13.2877C7.08638 13.147 7.00736 12.9563 7.00736 12.7573C7.00736 12.5584 7.08638 12.3677 7.22703 12.227C7.36768 12.0864 7.55845 12.0073 7.75736 12.0073C7.95627 12.0073 8.14704 12.0864 8.28769 12.227L12 15.9393L15.7123 12.227C15.853 12.0864 16.0437 12.0073 16.2426 12.0073C16.4416 12.0073 16.6323 12.0864 16.773 12.227Z" fill="#B31B2C"/>
<path fill-rule="evenodd" clip-rule="evenodd" d="M11.4697 16.4697C11.6103 16.329 11.8011 16.25 12 16.25C12.1989 16.25 12.3897 16.329 12.5303 16.4697L16.773 20.7123C16.9136 20.8529 16.9926 21.0437 16.9926 21.2426C16.9926 21.4415 16.9136 21.6323 16.773 21.773C16.6323 21.9136 16.4416 21.9926 16.2426 21.9926C16.0437 21.9926 15.853 21.9136 15.7123 21.773L12 18.0606L8.28769 21.773C8.14704 21.9136 7.95627 21.9926 7.75736 21.9926C7.55845 21.9926 7.36768 21.9136 7.22703 21.773C7.08638 21.6323 7.00736 21.4415 7.00736 21.2426C7.00736 21.0437 7.08638 20.8529 7.22703 20.7123L11.4697 16.4697Z" fill="#B31B2C"/>
<path fill-rule="evenodd" clip-rule="evenodd" d="M4.57538 24.4246C6.54451 26.3937 9.21523 27.5 12 27.5C14.7848 27.5 17.4555 26.3937 19.4246 24.4246C21.3938 22.4555 22.5 19.7848 22.5 17C22.5 14.2152 21.3938 11.5445 19.4246 9.57536C17.4555 7.60623 14.7848 6.49998 12 6.49998C9.21523 6.49998 6.54451 7.60623 4.57538 9.57536C2.60625 11.5445 1.5 14.2152 1.5 17C1.5 19.7848 2.60625 22.4555 4.57538 24.4246ZM3.51472 25.4853C5.76516 27.7357 8.8174 29 12 29C15.1826 29 18.2348 27.7357 20.4853 25.4853C22.7357 23.2348 24 20.1826 24 17C24 13.8174 22.7357 10.7651 20.4853 8.5147C18.2348 6.26426 15.1826 4.99998 12 4.99998C8.8174 4.99998 5.76516 6.26426 3.51472 8.5147C1.26428 10.7651 -6.00782e-07 13.8174 -7.69369e-07 17C-9.37957e-07 20.1826 1.26428 23.2348 3.51472 25.4853Z" fill="#B31B2C"/>
</svg>
