<svg width="80" height="52" viewBox="0 0 80 52" fill="none" xmlns="http://www.w3.org/2000/svg">
<g clip-path="url(#clip0)">
<path d="M73.6501 9.7H54.4501V6C54.4501 2.7 51.7501 0 48.4501 0H6.3501C3.0501 0 0.350098 2.7 0.350098 6V46C0.350098 49.3 3.0501 52 6.3501 52H48.4501C51.7501 52 54.4501 49.3 54.4501 46V40.3V13.7H73.6501C74.7501 13.7 75.6501 14.6 75.6501 15.7V36.4C75.6501 37.5 74.7501 38.4 73.6501 38.4H58.7501C57.6501 38.4 56.7501 39.3 56.7501 40.4C56.7501 41.5 57.6501 42.4 58.7501 42.4H73.6501C76.9501 42.4 79.6501 39.7 79.6501 36.4V15.7C79.6501 12.3 76.9501 9.7 73.6501 9.7ZM50.4501 46C50.4501 47.1 49.5501 48 48.4501 48H6.3501C5.2501 48 4.3501 47.1 4.3501 46V6C4.3501 4.9 5.2501 4 6.3501 4H48.4501C49.5501 4 50.4501 4.9 50.4501 6V9.7V40.4V46Z" fill="#B31E2D"/>
<path d="M60.25 22.8H70.25C71.35 22.8 72.25 21.9 72.25 20.8C72.25 19.7 71.35 18.8 70.25 18.8H60.25C59.15 18.8 58.25 19.7 58.25 20.8C58.25 21.9 59.05 22.8 60.25 22.8Z" fill="#B31E2D"/>
<path d="M70.25 33.4H60.25C59.15 33.4 58.25 32.5 58.25 31.4C58.25 30.3 59.15 29.4 60.25 29.4H70.25C71.35 29.4 72.25 30.3 72.25 31.4C72.25 32.5 71.35 33.4 70.25 33.4Z" fill="#B31E2D"/>
<path d="M28.2499 36.6C22.3499 36.6 17.6499 31.8 17.6499 26C17.6499 20.1 22.4499 15.4 28.2499 15.4C34.0499 15.4 38.8499 20.1 38.8499 26C38.8499 31.9 34.1499 36.6 28.2499 36.6ZM28.2499 19.4C24.5499 19.4 21.6499 22.4 21.6499 26C21.6499 29.6 24.6499 32.6 28.2499 32.6C31.8499 32.6 34.8499 29.6 34.8499 26C34.8499 22.4 31.9499 19.4 28.2499 19.4Z" fill="#CCA165"/>
</g>
<defs>
<clipPath id="clip0">
<rect width="79.3" height="52" fill="white" transform="translate(0.350098)"/>
</clipPath>
</defs>
</svg>
