<svg width="16" height="17" viewBox="0 0 16 17" fill="none" xmlns="http://www.w3.org/2000/svg">
<g clip-path="url(#clip0)">
<path d="M11.1284 4.83028V3.94954C11.1284 3.86881 11.0624 3.80275 10.9817 3.80275H3.93578C3.85505 3.80275 3.78899 3.86881 3.78899 3.94954V4.83028C3.78899 4.91101 3.85505 4.97706 3.93578 4.97706H10.9817C11.0624 4.97706 11.1284 4.91101 11.1284 4.83028ZM3.93578 6.44495C3.85505 6.44495 3.78899 6.51101 3.78899 6.59174V7.47248C3.78899 7.55321 3.85505 7.61927 3.93578 7.61927H7.31193C7.39266 7.61927 7.45872 7.55321 7.45872 7.47248V6.59174C7.45872 6.51101 7.39266 6.44495 7.31193 6.44495H3.93578ZM10.8349 8.57339C8.64587 8.57339 6.87156 10.3477 6.87156 12.5367C6.87156 14.7257 8.64587 16.5 10.8349 16.5C13.0239 16.5 14.7982 14.7257 14.7982 12.5367C14.7982 10.3477 13.0239 8.57339 10.8349 8.57339ZM12.8073 14.5092C12.2807 15.0358 11.5798 15.3257 10.8349 15.3257C10.0899 15.3257 9.38899 15.0358 8.86239 14.5092C8.33578 13.9826 8.04587 13.2817 8.04587 12.5367C8.04587 11.7917 8.33578 11.0908 8.86239 10.5642C9.38899 10.0376 10.0899 9.74771 10.8349 9.74771C11.5798 9.74771 12.2807 10.0376 12.8073 10.5642C13.3339 11.0908 13.6239 11.7917 13.6239 12.5367C13.6239 13.2817 13.3339 13.9826 12.8073 14.5092ZM12.4679 11.1422H11.655C11.6073 11.1422 11.5633 11.1642 11.5358 11.2028L10.3706 12.8138L9.94679 12.2284C9.93321 12.2095 9.91529 12.1942 9.89454 12.1836C9.87378 12.1731 9.8508 12.1677 9.82752 12.1679H9.01835C8.89908 12.1679 8.82936 12.3037 8.89908 12.4009L10.2532 14.2743C10.3119 14.355 10.4312 14.355 10.4899 14.2743L12.5853 11.3752C12.6569 11.278 12.5872 11.1422 12.4679 11.1422ZM6.57798 14.7385H2.3211V1.8211H12.5963V8.13303C12.5963 8.21376 12.6624 8.27982 12.7431 8.27982H13.7706C13.8514 8.27982 13.9174 8.21376 13.9174 8.13303V1.08716C13.9174 0.762385 13.655 0.5 13.3303 0.5H1.58716C1.26239 0.5 1 0.762385 1 1.08716V15.4725C1 15.7972 1.26239 16.0596 1.58716 16.0596H6.57798C6.65872 16.0596 6.72477 15.9936 6.72477 15.9128V14.8853C6.72477 14.8046 6.65872 14.7385 6.57798 14.7385Z" fill="#B31B2C"/>
</g>
<defs>
<clipPath id="clip0">
<rect width="16" height="16" fill="white" transform="translate(0 0.5)"/>
</clipPath>
</defs>
</svg>
