<svg width="78" height="71" viewBox="0 0 78 71" fill="none" xmlns="http://www.w3.org/2000/svg">
<g clip-path="url(#clip0)">
<path d="M63.05 52C62.65 52 62.25 51.9 61.95 51.7C61.15 59.3 55.15 65.1999 47.35 65.1999V67.1999C56.15 67.1999 62.95 60.5 63.95 52H63.05Z" fill="#B31E2D"/>
<path d="M17.05 28H6.25C2.95 28 0.25 30.7 0.25 34V46C0.25 49.3 2.95 52 6.25 52H15.05C16.15 52 17.05 51.1 17.05 50V28ZM13.05 48H6.25C5.15 48 4.25 47.1 4.25 46V34C4.25 32.9 5.15 32 6.25 32H13.05V48Z" fill="#CCA064"/>
<path d="M71.75 28H62.95C61.85 28 60.95 28.9 60.95 30V50C60.95 51.1 61.85 52 62.95 52H71.75C75.05 52 77.75 49.3 77.75 46V34C77.75 30.7 75.15 28 71.75 28ZM73.75 46C73.75 47.1 72.85 48 71.75 48H64.95V32H71.75C72.85 32 73.75 32.9 73.75 34V46Z" fill="#CCA064"/>
<path d="M45.25 62.2H34.25C33.15 62.2 32.25 63.0999 32.25 64.1999V68.1999C32.25 69.2999 33.15 70.1999 34.25 70.1999H45.25C46.35 70.1999 47.25 69.2999 47.25 68.1999V64.1999C47.25 63.0999 46.35 62.2 45.25 62.2Z" fill="#B31E2D"/>
<path d="M39.05 0C24.75 0 13.05 11.7 13.05 26V28H17.05V26C17.05 13.9 26.95 4 39.05 4C49.85 4 59.25 12.1 60.85 22.8C61.05 23.9 62.05 24.7 63.15 24.5C64.25 24.3 65.05 23.3 64.85 22.2C62.95 9.6 51.85 0 39.05 0Z" fill="#B31E2D"/>
</g>
<defs>
<clipPath id="clip0">
<rect width="77.5" height="70.2" fill="white" transform="translate(0.25)"/>
</clipPath>
</defs>
</svg>
