<svg width="284" height="23" viewBox="0 0 284 23" fill="none" xmlns="http://www.w3.org/2000/svg">
<g clip-path="url(#clip0)">
<path d="M230.634 0.561035L221.659 23H224.821L227.268 16.8294H236.805L239.329 23H242.415L233.439 0.561035H230.634ZM276.933 13.5813C276.451 12.8694 276.012 12.3282 275.613 11.9615C275.213 11.5949 274.742 11.3273 274.197 11.1589C275.548 10.6702 276.547 9.55937 277.301 8.00058L278.591 5.25444C278.593 5.2509 278.593 5.24709 278.595 5.24468L280.79 0.561035H277.952L275.995 4.69419L275.005 6.78579C274.459 7.96109 273.666 8.86908 272.891 9.36723C272.128 9.85702 271.298 10.0976 270.289 10.0976H268.78L268.786 0.561035H265.892L265.976 23H268.786L268.78 12.9027H270.699C271.18 12.9027 272.918 12.9552 273.756 13.9744C274.027 14.3024 274.332 14.7149 274.668 15.2166L279.91 23H283.366L276.933 13.5813ZM259.244 10.0976H247.463V0.561035H244.659V23H247.463V12.9027H259.244V23H262.049V0.561035H259.244V10.0976ZM197.018 0.561035H191.89L189.122 8.97578H187.98L185.195 0.561035H180.146L184.073 11.7807L180.146 23H185.195L188 14.0244H189.122L191.927 23H196.976L193.049 11.7807L197.018 0.561035ZM163.878 0.561035L161.634 23H166.673L167.244 17.3902H172.293L172.924 23H177.902L175.659 0.561035H163.878ZM0.634155 23H5.68294V16.2685H15.7805V0.561035H0.634155V23ZM126.854 5.60993H131.902V23H136.951V5.60993H142L141.949 0.561035H126.854V5.60993ZM109.463 23H124.61V15.7073H119.561V17.9514H114.512V5.04901H119.561V7.29285H124.61V0.561035H109.463V23ZM37.6585 23H52.8049V15.7073H47.7561V17.9514H42.7073V5.04901H47.7561V7.29285H52.8049V0.561035H37.6585V23ZM19.1463 23H34.2927V0.561035H19.1463V23ZM90.9512 23H106.098V15.7073H101.049V17.9514H96V5.04901H101.049V7.29285H106.098V0.561035H90.9512V23ZM144.244 23H149.293V16.2685H159.39V0.561035H144.244V23ZM72.439 23H87.5854V0.561035H72.439V23ZM56.1707 23H61.2195V5.60993H69.0732V0.561035H56.1707V23ZM214.366 10.0976V12.9027C216.516 12.9027 217.861 14.5488 217.861 16.6023C217.861 17.7514 217.49 18.5984 216.761 19.2243C215.849 20.0054 214.636 20.1928 212.683 20.1952C210.764 20.1977 210.441 20.1952 210.439 20.1952H204.829V23H212.683C214.177 23 215.861 22.7206 217.101 22.1915C218.104 21.7626 218.929 21.1367 219.561 20.365C220.815 18.8324 220.912 17.2233 220.912 16.7434C220.912 11.3132 216.516 10.0976 214.366 10.0976C212.216 10.0976 214.366 10.0976 214.366 10.0976ZM228.39 14.0244L231.956 3.927L235.683 14.0244H228.39ZM24.1951 5.60993H29.2439V17.9514H24.1951V5.60993ZM77.4878 5.60993H82.5366V17.9514H77.4878V5.60993ZM218.854 0.561035H204.829V3.36591H218.854V0.561035ZM5.68294 5.60993H10.7317V11.2196H5.68294V5.60993ZM149.293 5.60993H154.341V11.2196H149.293V5.60993ZM167.805 12.3416L168.366 5.60993H171.171L171.732 12.3416H167.805Z" fill="#CCCCCC"/>
<path d="M212.683 10.0974H207.634V5.04883H204.829V10.0974H199.78V12.9025H204.829V17.9512H207.634V12.9025H212.683V10.0974Z" fill="#CCA266"/>
</g>
<defs>
<clipPath id="clip0">
<rect width="282.732" height="23" fill="white" transform="translate(0.634155)"/>
</clipPath>
</defs>
</svg>
