<svg width="16" height="17" viewBox="0 0 16 17" fill="none" xmlns="http://www.w3.org/2000/svg">
<path d="M14.2632 5.15368V3.47368C14.2632 2.66316 13.6 2 12.7895 2H2.47368C2.08284 2 1.708 2.15526 1.43163 2.43163C1.15526 2.708 1 3.08284 1 3.47368V13.7895C1 14.1803 1.15526 14.5552 1.43163 14.8315C1.708 15.1079 2.08284 15.2632 2.47368 15.2632H12.7895C13.6 15.2632 14.2632 14.6 14.2632 13.7895V12.1095C14.4859 11.9809 14.6711 11.7962 14.8004 11.5739C14.9296 11.3516 14.9984 11.0993 15 10.8421V6.42105C14.9984 6.16387 14.9296 5.91158 14.8004 5.68924C14.6711 5.46691 14.4859 5.28227 14.2632 5.15368ZM13.5263 6.42105V10.8421H8.36842V6.42105H13.5263ZM2.47368 13.7895V3.47368H12.7895V4.94737H8.36842C7.55789 4.94737 6.89474 5.61053 6.89474 6.42105V10.8421C6.89474 11.6526 7.55789 12.3158 8.36842 12.3158H12.7895V13.7895H2.47368Z" fill="#B31B2C"/>
<path d="M10.5789 9.73684C11.1894 9.73684 11.6842 9.242 11.6842 8.63158C11.6842 8.02116 11.1894 7.52632 10.5789 7.52632C9.96853 7.52632 9.47368 8.02116 9.47368 8.63158C9.47368 9.242 9.96853 9.73684 10.5789 9.73684Z" fill="#B31B2C"/>
</svg>
